<svg xmlns="http://www.w3.org/2000/svg" viewBox="0 0 920 640" role="img" aria-labelledby="title desc">
  <title id="title">Faculty office and campus illustration</title>
  <desc id="desc">A stylized desk, laptop, books, window, and campus building scene.</desc>
  <rect width="920" height="640" rx="32" fill="#ffffff"/>
  <rect x="52" y="52" width="816" height="430" rx="26" fill="#dff3f4"/>
  <rect x="96" y="88" width="348" height="310" rx="18" fill="#f7fbff"/>
  <rect x="132" y="126" width="112" height="272" fill="#14345c" opacity=".9"/>
  <rect x="270" y="162" width="118" height="236" fill="#0f8b8d" opacity=".85"/>
  <rect x="556" y="96" width="222" height="278" rx="18" fill="#14345c"/>
  <rect x="590" y="130" width="54" height="54" rx="8" fill="#f6b83f"/>
  <rect x="668" y="130" width="54" height="54" rx="8" fill="#f7fbff"/>
  <rect x="590" y="210" width="54" height="54" rx="8" fill="#f7fbff"/>
  <rect x="668" y="210" width="54" height="54" rx="8" fill="#f6b83f"/>
  <rect x="590" y="290" width="132" height="46" rx="8" fill="#f7fbff"/>
  <path d="M74 482h772v86c0 28-23 51-51 51H125c-28 0-51-23-51-51v-86z" fill="#14345c"/>
  <path d="M188 432h404c32 0 58 26 58 58v9H130v-9c0-32 26-58 58-58z" fill="#f6b83f"/>
  <rect x="266" y="304" width="234" height="152" rx="14" fill="#18212f"/>
  <rect x="292" y="328" width="182" height="102" rx="8" fill="#f4f7fb"/>
  <rect x="302" y="342" width="116" height="12" rx="6" fill="#0f8b8d"/>
  <rect x="302" y="370" width="146" height="10" rx="5" fill="#d9e2ec"/>
  <rect x="302" y="394" width="98" height="10" rx="5" fill="#d9e2ec"/>
  <rect x="516" y="402" width="170" height="30" rx="15" fill="#0f8b8d"/>
  <rect x="536" y="358" width="120" height="26" rx="13" fill="#ffffff"/>
  <rect x="114" y="438" width="136" height="28" rx="14" fill="#ffffff"/>
  <circle cx="742" cy="432" r="58" fill="#ffffff"/>
  <path d="M709 437c23-50 49-50 67 0" fill="none" stroke="#0f8b8d" stroke-width="18" stroke-linecap="round"/>
  <circle cx="742" cy="402" r="23" fill="#f6b83f"/>
</svg>
